<?xml version="1.0" encoding="utf-8"?><!DOCTYPE svg PUBLIC "-//W3C//DTD SVG 1.1//EN" "http://www.w3.org/Graphics/SVG/1.1/DTD/svg11.dtd"><svg width="70" height="200" viewBox="0 0 70 200" xmlns="http://www.w3.org/2000/svg" xmlns:xlink="http://www.w3.org/1999/xlink"><svg width="40" height="40" viewBox="0 0 40 40" id="examples"><path fill="#999" d="M18.9 20.2c0 1.1.2 1.8.5 2.3s.8.7 1.5.7c.5 0 1-.2 1.4-.5.4-.3.7-.7.9-1.3l2.1.1c-.1.5-.2 1-.5 1.4s-.6.9-1 1.2c-.4.4-.9.6-1.5.9-.6.2-1.2.3-1.9.3-.8 0-1.6-.1-2.4-.3-.7-.2-1.4-.5-1.9-.9-.6-.4-1-1-1.3-1.7s-.4-1.4-.4-2.4c0-1.7.5-3.1 1.5-4 1-1 2.4-1.4 4.3-1.4.9 0 1.8.1 2.4.3.7.2 1.3.5 1.7 1s.8 1 1 1.8.3 1.6.3 2.6h-6.7zm3.1-1.7c0-.2 0-.5-.1-.8s-.1-.5-.2-.8c-.1-.2-.3-.4-.5-.6-.2-.2-.4-.2-.7-.2-.9 0-1.4.8-1.5 2.3h3z"/></svg><svg width="40" height="40" viewBox="0 0 40 40" id="examples--active" y="40"><path fill="#20B2AA" d="M18.9 20.2c0 1.1.2 1.8.5 2.3s.8.7 1.5.7c.5 0 1-.2 1.4-.5.4-.3.7-.7.9-1.3l2.1.1c-.1.5-.2 1-.5 1.4s-.6.9-1 1.2c-.4.4-.9.6-1.5.9-.6.2-1.2.3-1.9.3-.8 0-1.6-.1-2.4-.3-.7-.2-1.4-.5-1.9-.9-.6-.4-1-1-1.3-1.7s-.4-1.4-.4-2.4c0-1.7.5-3.1 1.5-4 1-1 2.4-1.4 4.3-1.4.9 0 1.8.1 2.4.3.7.2 1.3.5 1.7 1s.8 1 1 1.8.3 1.6.3 2.6h-6.7zm3.1-1.7c0-.2 0-.5-.1-.8s-.1-.5-.2-.8c-.1-.2-.3-.4-.5-.6-.2-.2-.4-.2-.7-.2-.9 0-1.4.8-1.5 2.3h3z"/></svg><svg width="40" height="40" viewBox="0 0 40 40" id="info" y="80"><path fill="#999" d="M22.3 24.8c0 .6.6.9 1.7.9v2.1h-8v-2.1c1.1 0 1.7-.3 1.7-.9v-4.2c0-.6-.6-.9-1.7-.9v-2.1h6.2v7.2zm-4.5-10.3c0-.3.1-.6.2-.9.1-.3.3-.5.5-.7.2-.2.5-.4.7-.5.3-.1.6-.2.9-.2s.6.1.9.2c.3.1.5.3.7.5.2.2.4.5.5.7.1.3.2.6.2.9 0 .3-.1.6-.2.9-.1.3-.3.5-.5.7-.2.2-.5.4-.7.5-.3.1-.6.2-.9.2s-.6-.1-.9-.2c-.3-.1-.5-.3-.7-.5-.2-.2-.4-.5-.5-.7-.2-.3-.2-.6-.2-.9z"/></svg><svg width="40" height="40" viewBox="0 0 40 40" id="info--active" y="120"><path fill="#20B2AA" d="M22.3 24.8c0 .6.6.9 1.7.9v2.1h-8v-2.1c1.1 0 1.7-.3 1.7-.9v-4.2c0-.6-.6-.9-1.7-.9v-2.1h6.2v7.2zm-4.5-10.3c0-.3.1-.6.2-.9.1-.3.3-.5.5-.7.2-.2.5-.4.7-.5.3-.1.6-.2.9-.2s.6.1.9.2c.3.1.5.3.7.5.2.2.4.5.5.7.1.3.2.6.2.9 0 .3-.1.6-.2.9-.1.3-.3.5-.5.7-.2.2-.5.4-.7.5-.3.1-.6.2-.9.2s-.6-.1-.9-.2c-.3-.1-.5-.3-.7-.5-.2-.2-.4-.5-.5-.7-.2-.3-.2-.6-.2-.9z"/></svg><svg width="70" height="40" viewBox="0 0 70 40" id="logo" y="160"><path fill="#FFF" d="M30.2 15.8l-3.6.2c-.1-.8-.4-1.5-.8-2.1-.4-.6-.9-1-1.5-1.3-.6-.3-1.3-.6-2.1-.7-.8-.2-1.7-.2-2.6-.2-.5 0-1 0-1.4.1-.4.1-.8.2-1.1.3-.3.1-.6.3-.8.6-.2.3-.3.6-.3 1 0 .6.3 1.1 1 1.4.7.3 1.5.6 2.5.8 1 .2 2.2.4 3.4.6 1.3.2 2.5.5 3.7.9 1.7.6 3 1.4 3.9 2.6s1.3 2.7 1.3 4.6c0 1.3-.2 2.4-.7 3.4-.5 1-1.1 1.8-1.9 2.5-.8.7-1.8 1.2-2.9 1.5s-2.3.5-3.6.5c-1.3 0-2.4-.1-3.3-.3-.9-.2-1.6-.4-2.1-.6s-1-.4-1.4-.6c-.4-.2-.8-.3-1.1-.3-.3 0-.6.1-.8.3-.2.2-.4.5-.6.9H9.7v-8.2l3.6-.2c.1 1.7.9 2.9 2.3 3.6 1.4.7 3.2 1.1 5.5 1.1 1.3 0 2.3-.2 3.1-.5.8-.3 1.1-1 1.1-2 0-.6-.3-1.1-.9-1.4-.6-.3-1.3-.6-2.2-.8-.9-.2-1.9-.4-3-.5-1.1-.2-2.2-.4-3.3-.7-1.2-.3-2.2-.8-3-1.2-.8-.5-1.4-1-1.9-1.7-.5-.6-.8-1.4-1-2.2-.2-.8-.3-1.8-.3-2.8 0-.9.2-1.8.5-2.7.3-.8.8-1.6 1.5-2.2.7-.6 1.5-1.1 2.5-1.5 1-.4 2.2-.5 3.6-.5 1.2 0 2.3.1 3.1.2.8.2 1.5.3 2.1.5.5.2 1 .4 1.4.5.4.2.7.2 1 .2.4 0 .8-.1 1-.2.1 0 .4-.3.6-.7h3.2v7.8zM34.1 19.8c0-2.2.3-4.1 1-5.7.6-1.6 1.5-2.8 2.5-3.8s2.2-1.7 3.6-2.2c1.3-.5 2.7-.7 4.1-.7 3.1 0 5.4.6 6.9 1.7l.7-1.1h3.9v7.8l-4.2.3c-.4-3.1-2-4.6-4.7-4.6-1 0-1.9.2-2.6.5-.7.3-1.3.8-1.7 1.5-.4.7-.7 1.5-.9 2.6-.2 1-.3 2.3-.3 3.8 0 1.9.1 3.3.3 4.4.2 1.1.6 1.9 1 2.4s1 .9 1.6 1c.6.1 1.3.2 2.1.2.6 0 1.1 0 1.6-.1s1-.2 1.4-.4c.4-.2.7-.5 1-.8.2-.3.4-.7.4-1.2V24c0-1-1-1.5-2.9-1.5v-3.4h11.4v3.4c-1.9 0-2.9.5-2.9 1.5v8h-4.7l-.6-1.6c-.2.3-.4.5-.8.8s-.8.5-1.4.7c-.6.2-1.3.4-2.1.5-.8.1-1.7.2-2.8.2-1.3 0-2.6-.2-3.9-.6-1.3-.4-2.5-1.1-3.5-2.1s-1.9-2.3-2.5-3.9c-.7-1.7-1-3.7-1-6.2z"/></svg></svg>